<svg id="Layer_1" enable-background="new 0 0 512 512" height="512" viewBox="0 0 512 512" width="512" xmlns="http://www.w3.org/2000/svg"><g><path d="m488 104h-112v-56c0-22.056-17.944-40-40-40h-160c-22.056 0-40 17.944-40 40v56h-112c-13.234 0-24 10.767-24 24v160c0 10.429 6.689 19.321 16 22.624v153.376c0 22.056 17.944 40 40 40h400c22.056 0 40-17.944 40-40v-153.376c9.311-3.303 16-12.195 16-22.624v-160c0-13.233-10.766-24-24-24zm-336-56c0-13.233 10.766-24 24-24h160c13.234 0 24 10.767 24 24v56h-16v-56c0-4.418-3.582-8-8-8h-160c-4.418 0-8 3.582-8 8v56h-16zm32 56v-48h144v48zm296 360c0 13.233-10.767 24-24 24h-400c-13.233 0-24-10.767-24-24v-152h160v16c0 13.233 10.767 24 24 24h8v16c0 17.645 14.355 32 32 32s32-14.355 32-32v-16h8c13.233 0 24-10.767 24-24v-16h160zm-176-136c0 4.411-3.589 8-8 8-59.283 0-46.272 0-80 0-4.411 0-8-3.589-8-8v-48c0-4.411 3.589-8 8-8h80c4.411 0 8 3.589 8 8zm-64 24h32v16c0 8.822-7.178 16-16 16s-16-7.178-16-16zm256-64c0 4.411-3.589 8-8 8h-168v-16c0-13.233-10.767-24-24-24h-80c-13.233 0-24 10.767-24 24v16h-168c-4.411 0-8-3.589-8-8v-160c0-4.411 3.589-8 8-8h464c4.411 0 8 3.589 8 8z"/></g></svg>